<svg width="20" height="20" viewBox="0 0 20 20" fill="none" xmlns="http://www.w3.org/2000/svg">
<path fill-rule="evenodd" clip-rule="evenodd" d="M8.5002 2.20312C5.0208 2.20312 2.2002 5.02373 2.2002 8.50313C2.2002 11.9825 5.0208 14.8031 8.5002 14.8031C9.95443 14.8031 11.2936 14.3104 12.3598 13.4828C12.3823 13.5128 12.4072 13.5415 12.4345 13.5688L15.4345 16.5688C15.7469 16.8812 16.2535 16.8812 16.5659 16.5688C16.8783 16.2564 16.8783 15.7499 16.5659 15.4374L13.5659 12.4374C13.5386 12.4102 13.5098 12.3853 13.4799 12.3627C14.3075 11.2965 14.8002 9.95736 14.8002 8.50313C14.8002 5.02373 11.9796 2.20312 8.5002 2.20312ZM3.8002 8.50313C3.8002 5.90739 5.90446 3.80312 8.5002 3.80312C11.0959 3.80312 13.2002 5.90739 13.2002 8.50313C13.2002 11.0989 11.0959 13.2031 8.5002 13.2031C5.90446 13.2031 3.8002 11.0989 3.8002 8.50313Z" fill="#130817" fill-opacity="0.3"/>
</svg>
